<svg xmlns="http://www.w3.org/2000/svg" viewBox="0 0 430 270" width="430" height="270" font-family="system-ui,sans-serif" role="img" aria-label="Apple M4 — Q4_0 decode">
<title>Apple M4 — Q4_0 decode</title>
<text x="58" y="20" font-size="13" font-weight="600" fill="#8b949e">Apple M4 — Q4_0 decode</text>
<line x1="58" y1="226.0" x2="406" y2="226.0" stroke="#8b949e" stroke-opacity="0.18" stroke-width="1"/>
<text x="50" y="230.0" font-size="10" text-anchor="end" fill="#8b949e" fill-opacity="0.75">0</text>
<line x1="58" y1="178.0" x2="406" y2="178.0" stroke="#8b949e" stroke-opacity="0.18" stroke-width="1"/>
<text x="50" y="182.0" font-size="10" text-anchor="end" fill="#8b949e" fill-opacity="0.75">31</text>
<line x1="58" y1="130.0" x2="406" y2="130.0" stroke="#8b949e" stroke-opacity="0.18" stroke-width="1"/>
<text x="50" y="134.0" font-size="10" text-anchor="end" fill="#8b949e" fill-opacity="0.75">63</text>
<line x1="58" y1="82.0" x2="406" y2="82.0" stroke="#8b949e" stroke-opacity="0.18" stroke-width="1"/>
<text x="50" y="86.0" font-size="10" text-anchor="end" fill="#8b949e" fill-opacity="0.75">94</text>
<line x1="58" y1="34.0" x2="406" y2="34.0" stroke="#8b949e" stroke-opacity="0.18" stroke-width="1"/>
<text x="50" y="38.0" font-size="10" text-anchor="end" fill="#8b949e" fill-opacity="0.75">126</text>
<text x="58.0" y="244" font-size="10" text-anchor="middle" fill="#8b949e" fill-opacity="0.75">1</text>
<text x="96.7" y="244" font-size="10" text-anchor="middle" fill="#8b949e" fill-opacity="0.75">2</text>
<text x="174.0" y="244" font-size="10" text-anchor="middle" fill="#8b949e" fill-opacity="0.75">4</text>
<text x="251.3" y="244" font-size="10" text-anchor="middle" fill="#8b949e" fill-opacity="0.75">6</text>
<text x="328.7" y="244" font-size="10" text-anchor="middle" fill="#8b949e" fill-opacity="0.75">8</text>
<text x="406.0" y="244" font-size="10" text-anchor="middle" fill="#8b949e" fill-opacity="0.75">10</text>
<text x="232.0" y="262" font-size="11" text-anchor="middle" fill="#8b949e" fill-opacity="0.85">threads</text>
<text x="14" y="130.0" font-size="11" fill="#8b949e" fill-opacity="0.85" text-anchor="middle" transform="rotate(-90 14 130.0)">tok/s</text>
<path d="M58.0,121.3 L96.7,73.9 L174.0,84.9 L251.3,105.4 L328.7,146.8 L406.0,220.8" fill="none" stroke="#f59e0b" stroke-width="2.2" stroke-linejoin="round"/>
<line x1="58.0" y1="122.8" x2="58.0" y2="119.8" stroke="#f59e0b" stroke-width="1.4" stroke-opacity="0.55"/>
<circle cx="58.0" cy="121.3" r="3.4" fill="#f59e0b"/>
<line x1="96.7" y1="93.3" x2="96.7" y2="54.6" stroke="#f59e0b" stroke-width="1.4" stroke-opacity="0.55"/>
<circle cx="96.7" cy="73.9" r="3.4" fill="#f59e0b"/>
<line x1="174.0" y1="85.7" x2="174.0" y2="84.1" stroke="#f59e0b" stroke-width="1.4" stroke-opacity="0.55"/>
<circle cx="174.0" cy="84.9" r="3.4" fill="#f59e0b"/>
<line x1="251.3" y1="116.3" x2="251.3" y2="94.5" stroke="#f59e0b" stroke-width="1.4" stroke-opacity="0.55"/>
<circle cx="251.3" cy="105.4" r="3.4" fill="#f59e0b"/>
<line x1="328.7" y1="148.3" x2="328.7" y2="145.4" stroke="#f59e0b" stroke-width="1.4" stroke-opacity="0.55"/>
<circle cx="328.7" cy="146.8" r="3.4" fill="#f59e0b"/>
<line x1="406.0" y1="221.5" x2="406.0" y2="220.0" stroke="#f59e0b" stroke-width="1.4" stroke-opacity="0.55"/>
<circle cx="406.0" cy="220.8" r="3.4" fill="#f59e0b"/>
</svg>